<svg width="187" height="78" viewBox="0 0 187 78" fill="none" xmlns="http://www.w3.org/2000/svg">
  <path d="M149.43 67.9408C149.913 69.2793 150.413 70.658 150.914 72.3238C150.925 72.3344 150.939 72.3421 150.954 72.3465C150.969 72.3508 150.985 72.3521 151.001 72.3494C151.016 72.3466 151.031 72.3403 151.044 72.3311C151.056 72.3217 151.067 72.3095 151.075 72.2954C151.547 70.7904 151.981 69.561 152.536 68.1307L152.67 67.734C153.476 67.8833 153.781 67.9466 153.909 67.9466C151.01 74.7052 150.953 74.8374 150.952 74.84C150.719 75.3915 149.991 77.0746 148.379 77.0746H147.784C147.797 76.7526 147.786 76.4299 147.751 76.1096H148.129C148.946 76.1096 149.546 75.7016 150.18 73.5877C148.407 69.2162 148.007 68.2337 147.901 67.9982C148.388 67.935 148.871 67.8394 149.346 67.7114L149.43 67.9408ZM143.505 67.6767C143.851 67.6829 144.193 67.7631 144.507 67.9124C144.822 68.0617 145.103 68.2771 145.333 68.5443L145.406 68.6359V67.8434C146.367 67.809 146.734 67.8087 146.868 67.8087V73.444C146.868 76.5804 144.806 77.0519 143.577 77.052C142.736 77.046 141.902 76.8841 141.115 76.5748C141.222 76.2637 141.308 75.945 141.371 75.6213C142.005 75.9914 142.726 76.1745 143.455 76.1501C144.689 76.1501 145.428 75.3167 145.428 73.9266C145.373 73.0541 145.356 73.0536 145.25 73.0536C145.035 73.3624 144.753 73.6151 144.427 73.7916C144.101 73.9681 143.74 74.0633 143.372 74.0702C141.826 74.0702 140.792 72.7605 140.792 70.8074C140.792 69.3081 141.838 67.6767 143.505 67.6767ZM77.2414 67.694C77.8576 67.692 78.4606 67.8798 78.9728 68.2339C79.485 68.588 79.8834 69.0924 80.1167 69.6819C80.3501 70.2713 80.408 70.9193 80.2829 71.543C80.1578 72.1666 79.8552 72.7378 79.4143 73.1828C78.9735 73.6277 78.4142 73.9268 77.8081 74.0413C77.2018 74.1558 76.5761 74.0804 76.0115 73.8253C75.4468 73.5702 74.9685 73.1468 74.638 72.6092C74.3076 72.0715 74.1403 71.4441 74.1569 70.8074C74.1529 70.391 74.2304 69.9782 74.3849 69.5937C74.5395 69.2091 74.7677 68.8608 75.0559 68.5698C75.3441 68.2789 75.6866 68.0514 76.0622 67.9008C76.4377 67.7503 76.8388 67.68 77.2414 67.694ZM125.973 67.694C126.59 67.692 127.192 67.8798 127.705 68.2339C128.217 68.588 128.615 69.0924 128.849 69.6819C129.082 70.2713 129.14 70.9193 129.015 71.543C128.89 72.1666 128.587 72.7378 128.146 73.1828C127.705 73.6277 127.146 73.9268 126.54 74.0413C125.934 74.1558 125.308 74.0804 124.743 73.8253C124.179 73.5702 123.7 73.1468 123.37 72.6092C123.039 72.0715 122.872 71.4441 122.889 70.8074C122.885 70.391 122.962 69.9782 123.117 69.5937C123.271 69.2091 123.5 68.8608 123.788 68.5698C124.076 68.2789 124.418 68.0514 124.794 67.9008C125.17 67.7503 125.571 67.68 125.973 67.694ZM105.491 67.6993C106.003 67.7065 106.51 67.8099 106.987 68.004C106.748 68.6069 106.653 68.8138 106.653 68.9C106.322 68.7484 105.965 68.6629 105.603 68.6475C105.334 68.6451 105.068 68.7015 104.822 68.8128C104.576 68.9241 104.355 69.0878 104.175 69.2934C103.994 69.4989 103.858 69.7415 103.774 70.0053C103.691 70.2692 103.663 70.5487 103.691 70.8247C103.691 72.1976 104.464 73.1225 105.614 73.1225C106.008 73.1284 106.394 73.0142 106.726 72.7948C106.915 73.3405 106.987 73.5419 107.026 73.6166C106.528 73.9054 105.968 74.0612 105.397 74.0702C104.978 74.102 104.557 74.0437 104.161 73.8986C103.765 73.7535 103.402 73.5247 103.096 73.2271C102.79 72.9296 102.547 72.5693 102.382 72.1696C102.218 71.7699 102.135 71.3391 102.14 70.9048C102.142 70.4622 102.232 70.0248 102.404 69.6197C102.577 69.2146 102.828 68.8502 103.142 68.5496C103.456 68.249 103.827 68.0186 104.231 67.8724C104.636 67.7261 105.064 67.6671 105.491 67.6993ZM136.556 67.6767C137.172 67.6757 137.773 67.864 138.284 68.218C138.795 68.572 139.193 69.0755 139.426 69.664C139.659 70.2526 139.717 70.8998 139.593 71.5227C139.469 72.1455 139.168 72.7159 138.728 73.1611C138.289 73.6063 137.731 73.906 137.126 74.022C136.521 74.138 135.896 74.0654 135.331 73.8128C134.766 73.5602 134.288 73.1392 133.955 72.6039C133.623 72.0686 133.453 71.4432 133.466 70.8074C133.46 70.3894 133.537 69.9744 133.691 69.5879C133.845 69.2013 134.074 68.851 134.363 68.5583C134.651 68.2656 134.995 68.0365 135.372 67.8849C135.749 67.7333 136.152 67.6626 136.556 67.6767ZM98.5228 67.682C98.8478 67.6646 99.1726 67.7192 99.4755 67.842C99.7784 67.9648 100.053 68.1532 100.279 68.3944C100.838 69.1109 101.122 70.0146 101.079 70.9337C97.1144 70.9452 97.1054 70.9564 97.0721 71.0195C97.0577 71.3069 97.0994 71.5946 97.1948 71.8649C97.2903 72.1354 97.438 72.3834 97.6281 72.5938C97.7957 72.7743 97.9966 72.9183 98.219 73.017C98.4414 73.1156 98.6808 73.1671 98.9228 73.1683C99.4839 73.1759 100.033 72.9987 100.49 72.6627C100.752 73.1622 100.852 73.3461 100.902 73.4151C100.213 73.8315 99.4317 74.0573 98.6339 74.0702C98.2135 74.0838 97.7948 74.0062 97.405 73.8432C97.0152 73.6801 96.6626 73.4349 96.3697 73.123C96.0768 72.8111 95.8501 72.4394 95.704 72.0317C95.558 71.6241 95.4957 71.1892 95.5214 70.7553C95.5038 70.3445 95.5697 69.9343 95.7146 69.5512C95.8596 69.1683 96.0803 68.8207 96.3629 68.5313C96.6456 68.2418 96.9842 68.0167 97.3562 67.8704C97.7281 67.7242 98.1255 67.6599 98.5228 67.682ZM95.5997 65.3273C95.5863 65.6743 95.5995 66.0221 95.6388 66.367C94.7542 66.3493 93.8693 66.3782 92.9876 66.4533C93.0151 73.2703 93.0151 73.9075 93.0152 73.9208C91.965 73.9265 91.587 73.9612 91.448 73.9613C91.448 73.3523 91.4423 66.4013 91.3644 66.3439C89.4583 66.3726 88.9692 66.3728 88.8302 66.3728C88.8302 66.2809 88.791 65.3384 88.791 65.3384H89.036C94.2925 65.3269 95.377 65.3216 95.5997 65.3273ZM132.015 64.8964C132.015 64.9085 132.009 73.651 132.042 73.9613H130.547V64.9021C131.548 64.8907 132.015 64.8964 132.015 64.8964ZM84.0945 64.8964C84.4938 64.9027 84.8912 64.9563 85.2785 65.0569C85.0618 65.6888 85.0396 65.8267 85.0896 65.8267L84.3892 65.7119C84.2647 65.7115 84.1416 65.7389 84.0283 65.792C83.915 65.845 83.8139 65.9225 83.7322 66.0195C83.6504 66.1165 83.5897 66.2306 83.5544 66.354C83.5191 66.4773 83.5103 66.607 83.5278 66.7343C83.5445 67.7959 83.55 67.8028 83.6109 67.8372C84.5945 67.8085 84.8837 67.8087 84.9838 67.8087C84.9671 68.0439 84.9671 68.2802 84.9838 68.5154C83.5466 68.5268 83.4999 68.5496 83.4998 68.6012C83.5331 72.8398 83.5331 73.7195 83.5331 73.9208C82.5606 73.9265 82.1936 73.9555 82.0602 73.9555C82.0602 73.5361 82.0547 68.5728 81.9713 68.5154C81.3601 68.5441 81.1656 68.5438 81.0877 68.5438C81.0958 68.3099 81.0862 68.0754 81.0597 67.843C82.0088 67.8258 82.0325 67.803 82.0602 67.7572V67.0389C82.04 66.7557 82.0787 66.4712 82.1732 66.2046C82.2678 65.9379 82.4165 65.6949 82.609 65.4921C82.8014 65.2895 83.0335 65.1312 83.2896 65.0284C83.5458 64.9257 83.8202 64.8809 84.0945 64.8964ZM109.694 64.8617C109.716 68.5357 109.755 68.538 109.838 68.538C110.099 68.2604 110.412 68.0413 110.758 67.8941C111.104 67.7469 111.476 67.6749 111.85 67.6824C113.229 67.6824 113.929 68.4637 113.929 69.9802C113.962 73.0302 113.962 73.7426 113.962 73.9208C112.99 73.9265 112.628 73.9555 112.489 73.9555V70.1697C112.489 69.1759 112.028 68.6302 111.195 68.6301C110.988 68.6232 110.782 68.6621 110.59 68.7443C110.399 68.8266 110.227 68.9506 110.086 69.1073C109.945 69.264 109.838 69.4504 109.772 69.6534C109.706 69.8564 109.683 70.0715 109.705 70.2844C109.738 73.0817 109.738 73.7484 109.738 73.9208C108.766 73.9265 108.404 73.9555 108.265 73.9555V64.9017C109.254 64.8902 109.599 64.8846 109.694 64.8617ZM119.332 67.6824C120.711 67.6825 121.411 68.4637 121.411 69.9802C121.444 73.0298 121.444 73.7425 121.444 73.9208C120.472 73.9265 120.105 73.9555 119.971 73.9555V70.1697C119.971 69.1759 119.51 68.6301 118.676 68.6301C118.469 68.6232 118.263 68.6621 118.072 68.7443C117.881 68.8266 117.709 68.9506 117.568 69.1073C117.426 69.264 117.319 69.4504 117.254 69.6534C117.188 69.8564 117.165 70.0716 117.187 70.2844C117.22 73.0813 117.22 73.7482 117.22 73.9208C116.248 73.9265 115.881 73.9555 115.747 73.9555C115.747 69.2277 115.73 68.1072 115.697 67.843C116.19 67.8575 116.684 67.8443 117.176 67.8029V68.5269L117.248 68.6301L117.32 68.5496C117.58 68.2699 117.892 68.0486 118.239 67.8994C118.585 67.7501 118.957 67.6764 119.332 67.6824ZM116.68 0.200921C117.008 0.200939 117.425 0.626169 118.453 0.712346C119.648 0.838725 121.215 0.924916 122.577 0.924917H138.901C139.853 0.925644 140.805 0.854583 141.747 0.712346C142.113 0.616336 142.484 0.543362 142.859 0.49399C143.148 0.494043 143.187 0.752487 143.187 1.39007C143.187 2.28626 143.064 5.22165 143.064 6.33609C143.02 6.76111 143.02 7.01951 142.692 7.01959C142.364 7.01959 142.28 6.80695 142.236 6.16931L142.197 5.69837C142.119 4.58971 141.008 3.39472 137.334 3.30851L132.143 3.18222V20.6632C132.143 24.5809 132.142 28.3492 132.348 30.1817C132.47 31.3707 132.715 32.3128 133.954 32.4795C134.227 32.5197 134.577 32.5602 134.933 32.5889C154.668 32.497 160.143 33.7834 160.105 33.9559C160.087 34.0486 160.037 34.1313 159.964 34.1892C159.892 34.2471 159.802 34.2768 159.711 34.2721C159.566 34.2721 145.626 34.8006 122.744 36.5699C47.5825 42.3777 1.01705 73.5301 0.555733 73.8461C0.513146 73.8789 0.464529 73.9026 0.41274 73.915C0.360901 73.9274 0.307039 73.9281 0.25477 73.9179C0.202494 73.9076 0.152719 73.8864 0.108878 73.8552C0.0651086 73.8241 0.0281358 73.7838 0.000183606 73.7371C-0.116535 73.5475 55.4306 34.4843 123.75 32.761C124.357 32.769 124.962 32.7095 125.556 32.5831C126.429 32.3074 126.629 31.4741 126.752 30.2333C126.957 28.4466 126.957 24.575 126.957 20.6574V3.18222L120.843 3.349C118.453 3.44092 117.464 3.65339 116.847 4.58972C116.532 5.0421 116.295 5.54763 116.146 6.08351C116.063 6.42229 115.98 6.58867 115.691 6.58867C115.402 6.58866 115.318 6.37625 115.318 5.91094C115.318 5.22142 116.108 1.3496 116.185 1.00493C116.308 0.453603 116.352 0.200921 116.68 0.200921ZM77.2414 68.4407C76.102 68.4407 75.6907 69.6585 75.6907 70.8074H75.6965C75.6965 71.3991 75.8297 73.3235 77.2414 73.3235C78.6531 73.3235 78.8032 71.5599 78.8032 70.8074C78.8032 69.6642 78.3808 68.4407 77.2414 68.4407ZM125.973 68.4407C124.834 68.4407 124.428 69.6585 124.428 70.8074C124.428 71.3991 124.562 73.3235 125.973 73.3235C127.385 73.3235 127.535 71.5599 127.535 70.8074C127.535 69.6642 127.113 68.4407 125.973 68.4407ZM136.556 68.4407C135.411 68.4407 135.006 69.6585 135.006 70.8074C135.006 71.3992 135.15 73.3235 136.556 73.3235C137.962 73.3235 138.112 71.56 138.112 70.8074C138.112 69.6643 137.701 68.4407 136.556 68.4407ZM143.877 68.5154C142.883 68.5154 142.327 69.337 142.327 70.7674C142.327 71.9622 142.794 73.2487 143.805 73.2488C145 73.2488 145.428 71.8589 145.428 70.71C145.428 69.6645 144.872 68.5154 143.877 68.5154ZM98.5006 68.4402C98.3221 68.4332 98.1438 68.4646 97.9774 68.5318C97.8111 68.599 97.66 68.7009 97.5335 68.8311V68.8253C97.392 68.9833 97.2823 69.1688 97.2108 69.371C97.1392 69.5731 97.1071 69.7879 97.1166 70.0029L97.1779 70.2155C99.6066 70.204 99.6122 70.1982 99.6455 70.135C99.681 69.8961 99.6695 69.6522 99.6112 69.4182C99.5529 69.1843 99.449 68.9651 99.3064 68.7737C99.2028 68.6621 99.0773 68.5743 98.9383 68.5168C98.7993 68.4594 98.6501 68.4332 98.5006 68.4402ZM130.897 53.4763C131.386 54.8262 131.892 56.222 132.398 57.8993C132.41 57.9099 132.423 57.9176 132.438 57.922C132.453 57.9263 132.469 57.9276 132.485 57.9249C132.5 57.9222 132.515 57.9158 132.528 57.9066C132.541 57.8973 132.551 57.885 132.559 57.8709C133.071 56.2395 133.615 54.7857 134.054 53.6368L134.16 53.3038C134.96 53.4588 135.271 53.5221 135.393 53.5221L132.436 60.4155C132.203 60.9727 131.48 62.6501 129.863 62.6501C129.474 62.6789 129.335 62.6791 129.268 62.6791C129.282 62.357 129.27 62.0343 129.235 61.7141H129.613C130.43 61.714 131.031 61.306 131.659 59.1921C129.897 54.8206 129.491 53.8439 129.385 53.6026C129.873 53.53 130.356 53.4246 130.83 53.2869C130.852 53.3444 130.897 53.4763 130.897 53.4763ZM104.899 59.048C104.899 60.8403 103.993 61.9031 102.515 61.9893V61.0127C102.64 60.9797 102.758 60.921 102.861 60.8402C102.964 60.7592 103.051 60.6578 103.115 60.5418C103.311 60.0628 103.402 59.5449 103.382 59.0253V50.937C104.46 50.9313 104.804 50.9253 104.899 50.9081V59.048ZM174.292 53.419C174.292 58.1408 174.309 59.2667 174.342 59.531C173.847 59.5163 173.352 59.5276 172.858 59.5652C172.836 58.7784 172.797 58.7785 172.719 58.7785C172.487 59.0562 172.2 59.2801 171.879 59.4355C171.557 59.5909 171.207 59.6744 170.852 59.6804C169.59 59.6804 168.89 58.8646 168.89 57.3826C168.862 54.338 168.862 53.6254 168.862 53.4416C169.834 53.4359 170.184 53.43 170.335 53.4243V57.1643C170.335 58.1293 170.779 58.7038 171.552 58.7038C172.18 58.7038 172.847 58.1577 172.847 56.9801L172.808 53.4474C173.842 53.4187 174.175 53.419 174.292 53.419ZM85.8848 53.2864C86.2104 53.2707 86.5358 53.3261 86.8394 53.4488C87.1429 53.5716 87.4182 53.759 87.6471 53.9988C88.2018 54.7194 88.4842 55.6241 88.4418 56.5439C84.4783 56.5554 84.4678 56.5609 84.4346 56.6239C84.4202 56.9114 84.4618 57.199 84.5573 57.4694C84.6528 57.7398 84.7999 57.9879 84.9901 58.1982C85.1557 58.3799 85.3558 58.5245 85.5775 58.6233C85.7992 58.7221 86.0381 58.7731 86.2795 58.7728C86.8416 58.7815 87.3916 58.602 87.8471 58.2613C88.1138 58.7611 88.214 58.9448 88.264 59.0138C87.5734 59.4314 86.7906 59.6591 85.9906 59.6746C85.5702 59.6882 85.1515 59.6107 84.7616 59.4476C84.3718 59.2845 84.0192 59.0393 83.7264 58.7275C83.4334 58.4155 83.2067 58.0438 83.0607 57.6362C82.9146 57.2285 82.8523 56.7937 82.8781 56.3598C82.8612 55.9486 82.9276 55.5382 83.0732 55.1552C83.2188 54.7722 83.4404 54.4251 83.7235 54.1357C84.0066 53.8463 84.3454 53.6211 84.7177 53.4749C85.0898 53.3287 85.4873 53.2645 85.8848 53.2864ZM109.602 53.3153C109.923 53.2984 110.244 53.35 110.544 53.4676C110.844 53.5853 111.118 53.7664 111.347 53.9988C111.902 54.7194 112.184 55.6237 112.142 56.5434C108.177 56.5549 108.168 56.5609 108.135 56.6239C108.119 56.9115 108.16 57.1997 108.256 57.4703C108.351 57.7409 108.499 57.9887 108.69 58.1982C108.856 58.3799 109.056 58.5246 109.278 58.6233C109.499 58.7221 109.738 58.7726 109.98 58.7723C110.542 58.781 111.092 58.602 111.547 58.2613C111.814 58.761 111.914 58.9448 111.964 59.0138C111.274 59.4314 110.491 59.6586 109.691 59.6741C109.27 59.6877 108.852 59.6107 108.462 59.4476C108.072 59.2845 107.719 59.0393 107.427 58.7275C107.134 58.4155 106.907 58.0438 106.761 57.6362C106.615 57.2285 106.553 56.7937 106.578 56.3598C106.565 55.9494 106.635 55.5409 106.784 55.16C106.932 54.7792 107.156 54.4343 107.44 54.1478C107.725 53.8613 108.064 53.6394 108.436 53.4961C108.808 53.3527 109.205 53.2911 109.602 53.3153ZM126.213 53.2864C126.538 53.2708 126.862 53.3262 127.165 53.4488C127.467 53.5716 127.742 53.7591 127.969 53.9988C128.524 54.7194 128.806 55.6237 128.764 56.5434C124.799 56.5549 124.79 56.5609 124.763 56.6239C124.747 56.9116 124.787 57.1997 124.883 57.4703C124.979 57.741 125.127 57.9888 125.318 58.1982C125.485 58.3803 125.685 58.525 125.908 58.6238C126.131 58.7226 126.371 58.7731 126.613 58.7723C127.175 58.7798 127.725 58.6008 128.18 58.2613C128.442 58.7611 128.542 58.9448 128.592 59.0138C127.902 59.4319 127.119 59.6592 126.319 59.6741C125.898 59.6877 125.48 59.6107 125.09 59.4476C124.7 59.2845 124.347 59.0393 124.054 58.7275C123.762 58.4155 123.535 58.0438 123.389 57.6362C123.243 57.2285 123.18 56.7937 123.206 56.3598C123.19 55.9488 123.257 55.5388 123.403 55.1562C123.549 54.7736 123.771 54.4268 124.053 54.1376C124.336 53.8484 124.675 53.6233 125.047 53.4768C125.418 53.3303 125.816 53.2653 126.213 53.2864ZM183.484 53.2864C183.809 53.2708 184.133 53.3261 184.435 53.4488C184.738 53.5716 185.012 53.7591 185.24 53.9988C185.795 54.7194 186.077 55.6237 186.035 56.5434C182.071 56.5549 182.061 56.5609 182.028 56.6239C182.013 56.9114 182.055 57.199 182.15 57.4694C182.246 57.7398 182.393 57.9879 182.583 58.1982C182.749 58.3799 182.949 58.5245 183.171 58.6233C183.392 58.7221 183.631 58.7731 183.873 58.7728C184.436 58.7815 184.988 58.602 185.446 58.2613C185.567 58.5211 185.705 58.7724 185.857 59.0138C185.167 59.4319 184.384 59.6596 183.584 59.6746C183.163 59.6882 182.745 59.6107 182.355 59.4476C181.965 59.2845 181.612 59.0393 181.32 58.7275C181.027 58.4155 180.8 58.0438 180.654 57.6362C180.508 57.2285 180.446 56.7937 180.471 56.3598C180.455 55.9483 180.523 55.5378 180.669 55.1547C180.815 54.7717 181.037 54.4245 181.321 54.1352C181.604 53.846 181.943 53.621 182.316 53.4749C182.688 53.3288 183.086 53.2645 183.484 53.2864ZM177.793 51.5516C177.81 53.4069 177.815 53.4072 177.877 53.4416C178.927 53.4129 179.261 53.4127 179.378 53.4127C179.373 53.6486 179.382 53.8847 179.405 54.1193C177.839 54.1366 177.821 54.1597 177.793 54.2056V57.2848C177.794 58.3302 178.093 58.8359 178.71 58.8359C178.967 58.8492 179.221 58.7699 179.427 58.6118C179.496 58.8479 179.578 59.08 179.672 59.3068C179.207 59.5456 178.695 59.6716 178.177 59.6746C176.965 59.6746 176.348 59.031 176.348 57.7615C176.337 54.1618 176.332 54.1537 176.265 54.1193C175.748 54.1481 175.575 54.1483 175.503 54.1483C175.52 53.9131 175.52 53.6768 175.503 53.4416C176.326 53.4301 176.376 53.407 176.376 53.3553V51.9252L177.488 51.6663C177.593 51.6396 177.696 51.6012 177.793 51.5516ZM158.011 51.569C158.022 53.3889 158.044 53.4416 158.094 53.4416C159.144 53.4129 159.478 53.4127 159.595 53.4127C159.59 53.6487 159.601 53.8849 159.628 54.1193C158.055 54.1366 158.011 54.1539 158.011 54.2056V57.2848C158.011 58.3301 158.311 58.8354 158.928 58.8354C159.182 58.8451 159.433 58.7666 159.639 58.6118C159.789 59.0539 159.85 59.2322 159.889 59.3068C159.424 59.5456 158.913 59.6711 158.394 59.6741C157.182 59.6741 156.565 59.0309 156.565 57.7615C156.554 54.1626 156.543 54.1537 156.482 54.1193C155.965 54.1481 155.793 54.1483 155.72 54.1483C155.725 53.9123 155.714 53.676 155.687 53.4416C156.515 53.4301 156.565 53.407 156.565 53.3553V51.9247C157.527 51.7007 157.877 51.5919 158.011 51.569ZM165.976 51.569C165.987 53.3889 166.009 53.4416 166.059 53.4416C167.109 53.4129 167.443 53.4127 167.56 53.4127C167.552 53.6486 167.561 53.8849 167.587 54.1193C166.02 54.1366 166.004 54.1539 165.976 54.2056V57.2848C165.976 58.3301 166.276 58.8354 166.893 58.8354C167.148 58.8529 167.401 58.7736 167.604 58.6118C167.754 59.0539 167.815 59.2322 167.854 59.3068C167.389 59.5456 166.878 59.6711 166.359 59.6741C165.147 59.6741 164.53 59.0309 164.53 57.7615C164.519 54.1626 164.508 54.1537 164.447 54.1193C163.93 54.1481 163.758 54.1483 163.685 54.1483C163.69 53.9123 163.679 53.676 163.652 53.4416C164.48 53.4301 164.53 53.407 164.53 53.3553V51.9247C165.492 51.7007 165.842 51.5919 165.976 51.569ZM153.086 53.2753C153.67 53.2641 154.246 53.4145 154.754 53.7115C154.443 54.1592 154.331 54.3376 154.292 54.4124C153.996 54.1827 153.64 54.049 153.27 54.0277C153.17 54.0175 153.07 54.0283 152.974 54.0596C152.879 54.0909 152.791 54.1422 152.715 54.21C152.64 54.2777 152.579 54.3607 152.535 54.4539C152.492 54.547 152.468 54.6485 152.464 54.7517C152.464 55.1997 152.841 55.4697 153.364 55.843L153.753 56.1245C154.062 56.3152 154.321 56.5806 154.509 56.8977C154.697 57.2149 154.808 57.5746 154.831 57.9456C154.831 58.7843 153.959 59.6688 152.653 59.6688C151.964 59.6629 151.29 59.4643 150.702 59.0943C150.865 58.8378 151.014 58.5714 151.146 58.296C151.518 58.6187 151.975 58.8189 152.458 58.8706C152.577 58.886 152.698 58.8749 152.812 58.8388C152.927 58.8027 153.033 58.7418 153.123 58.6605C153.213 58.5791 153.286 58.4792 153.336 58.3669C153.386 58.2546 153.413 58.1325 153.414 58.0088C153.414 57.4688 152.947 57.1469 152.447 56.8023L152.169 56.6013C151.491 56.0843 151.058 55.6592 151.058 54.9354C151.058 53.9991 151.93 53.3155 153.086 53.2753ZM120.36 53.2748C120.944 53.2625 121.52 53.4135 122.027 53.7115C121.716 54.1595 121.605 54.3377 121.566 54.4124C121.271 54.1828 120.918 54.0486 120.549 54.0273C120.449 54.0162 120.348 54.0267 120.252 54.0576C120.156 54.0886 120.067 54.1392 119.991 54.2071C119.915 54.2749 119.854 54.3584 119.81 54.4519C119.766 54.5455 119.742 54.6475 119.738 54.7513C119.738 55.1993 120.116 55.4692 120.638 55.8426L121.027 56.1241C121.337 56.3141 121.598 56.5791 121.786 56.8963C121.975 57.2135 122.087 57.5735 122.111 57.9451C122.111 58.7838 121.233 59.6683 119.932 59.6684C119.244 59.663 118.569 59.4648 117.981 59.0943C118.287 58.5715 118.387 58.3817 118.426 58.2956C118.797 58.6194 119.254 58.8199 119.738 58.8701C119.856 58.8856 119.976 58.8745 120.091 58.8383C120.205 58.8021 120.311 58.7414 120.4 58.66C120.49 58.5786 120.562 58.4783 120.612 58.3659C120.661 58.2536 120.687 58.1317 120.688 58.0083C120.688 57.4683 120.221 57.1464 119.726 56.8018L119.443 56.6008C118.759 56.0838 118.331 55.6587 118.331 54.9349C118.331 53.9986 119.199 53.315 120.36 53.2748ZM162.428 53.4127C162.428 58.1336 162.445 59.2601 162.473 59.5247C161.976 59.5102 161.478 59.5239 160.983 59.5652V53.4416C161.983 53.4359 162.312 53.4242 162.428 53.4127ZM147.224 53.2869C148.608 53.2869 149.308 54.0624 149.308 55.5847C149.342 58.6345 149.342 59.347 149.342 59.5252C148.363 59.5309 148.002 59.5599 147.863 59.5599V55.7741C147.863 54.7803 147.407 54.2345 146.574 54.2345C146.367 54.2277 146.161 54.2668 145.971 54.3488C145.78 54.4307 145.608 54.5538 145.467 54.7098C145.326 54.8659 145.219 55.0512 145.153 55.2535C145.087 55.4558 145.064 55.6706 145.084 55.883C145.118 58.686 145.118 59.3528 145.118 59.5252C144.139 59.5309 143.778 59.5599 143.639 59.5599C143.639 54.8321 143.594 53.7116 143.594 53.4416C144.087 53.4559 144.581 53.4447 145.073 53.4074V54.1309L145.145 54.2345L145.217 54.154C145.478 53.8775 145.791 53.6581 146.135 53.5091C146.48 53.3601 146.85 53.2846 147.224 53.2869ZM81.2269 50.9197C81.2269 57.8113 81.2433 59.2313 81.2766 59.5363H80.1264L75.124 53.2175V53.338C75.1574 58.2611 75.1574 59.2955 75.1574 59.531C74.2905 59.5597 74.0181 59.5594 73.9236 59.5594C73.918 52.667 73.9067 51.2476 73.8733 50.9428H75.0463C76.6136 52.8844 78.2479 54.8892 79.9486 57.1238L80.0206 57.2216V50.9428C80.4227 50.9609 80.8257 50.9531 81.2269 50.9197ZM116.465 53.2922C116.84 53.3208 117.197 53.4741 117.482 53.7289C117.071 54.5043 116.959 54.734 116.926 54.8202C116.699 54.6872 116.442 54.6179 116.181 54.6192C115.442 54.6193 114.998 55.3317 114.998 56.5208C115.025 58.7897 115.025 59.3644 115.025 59.5252C114.053 59.5309 113.691 59.5594 113.552 59.5594C113.552 54.832 113.535 53.7117 113.508 53.4416C114.001 53.4562 114.494 53.4445 114.986 53.4069C114.992 53.5447 115.014 54.5093 115.158 54.5103L115.486 54.022V53.993C115.681 53.7346 116.003 53.3152 116.465 53.2922ZM90.4818 53.551C91.7546 57.7099 91.777 57.7212 91.8214 57.7499H91.8712V57.7041C92.3436 56.1589 92.8328 54.9009 93.3108 53.6831C93.3349 53.6022 93.3535 53.5194 93.3664 53.4358C93.7181 53.4554 94.0706 53.4554 94.4224 53.4358C94.9337 54.7398 95.4562 56.0844 95.9842 57.7446C96.0199 57.7707 96.0627 57.7846 96.1064 57.7846C96.1223 57.7614 96.1356 57.7363 96.1456 57.7099C96.5402 56.1532 96.9567 54.832 97.3624 53.551C97.3881 53.4853 97.4103 53.4181 97.4291 53.35C98.2072 53.4592 98.5245 53.5048 98.6634 53.5048C98.4244 54.1769 96.59 59.3932 96.59 59.5426H95.3837L95.3059 59.33C93.7895 55.162 93.761 55.1249 93.7166 55.1248H93.6664V55.1764C93.1995 56.7102 92.7103 58.0433 92.2379 59.3416C92.222 59.4017 92.2108 59.4632 92.2045 59.5252C91.8653 59.5098 91.5255 59.5196 91.1876 59.5541C89.5092 54.8783 89.131 53.8555 89.0364 53.6142C89.5003 53.5512 89.9593 53.4532 90.4094 53.3211C90.4316 53.3843 90.4818 53.551 90.4818 53.551ZM141.648 50.9081C141.648 57.7998 141.664 59.2198 141.698 59.5247C140.581 59.5534 140.225 59.5536 140.103 59.5536V50.937C141.181 50.9313 141.526 50.9253 141.648 50.9081ZM109.557 54.0446C109.378 54.0405 109.199 54.0747 109.033 54.1449C108.867 54.215 108.716 54.3197 108.59 54.4524C108.428 54.6363 108.31 54.8586 108.249 55.0998C108.188 55.3409 108.185 55.5941 108.24 55.8368C110.666 55.8253 110.674 55.8197 110.708 55.7568C110.742 55.517 110.73 55.2724 110.672 55.0376C110.614 54.8028 110.511 54.5824 110.369 54.3893C110.264 54.2788 110.137 54.1926 109.997 54.1362C109.857 54.0798 109.707 54.0545 109.557 54.062V54.0446ZM85.8573 54.0446C85.6788 54.0383 85.5008 54.07 85.3346 54.1372C85.1683 54.2043 85.0171 54.3059 84.8901 54.4355V54.464C84.6136 54.7748 84.4662 55.1853 84.479 55.6073C84.4796 55.6112 84.5124 55.8195 84.5399 55.8199C86.9678 55.8084 86.9742 55.8025 87.0075 55.7394C87.0423 55.4993 87.03 55.2542 86.9708 55.0193C86.9115 54.7844 86.8068 54.5644 86.663 54.3724C86.5592 54.2614 86.4335 54.1749 86.2944 54.1184C86.1554 54.0619 86.0064 54.0365 85.8573 54.0446ZM126.185 54.0446C126.008 54.0377 125.831 54.069 125.665 54.1362C125.5 54.2034 125.349 54.3054 125.224 54.4355V54.464C124.945 54.7739 124.796 55.1846 124.807 55.6073C124.808 55.6134 124.841 55.8195 124.868 55.8199C127.295 55.8084 127.302 55.8025 127.336 55.7394C127.371 55.4997 127.36 55.2547 127.302 55.0197C127.243 54.7848 127.14 54.5644 126.997 54.3719C126.892 54.2615 126.765 54.1753 126.625 54.1189C126.485 54.0624 126.335 54.0372 126.185 54.0446ZM183.45 54.0446C183.272 54.0383 183.094 54.07 182.928 54.1372C182.762 54.2043 182.61 54.3059 182.483 54.4355V54.464C182.209 54.7761 182.062 55.1857 182.072 55.6073C182.073 55.6118 182.106 55.8195 182.133 55.8199C184.561 55.8084 184.567 55.7968 184.601 55.7394C184.635 55.4997 184.623 55.2554 184.565 55.0207C184.507 54.786 184.404 54.5655 184.262 54.3724C184.157 54.2619 184.03 54.1753 183.89 54.1189C183.75 54.0624 183.6 54.0372 183.45 54.0446ZM161.672 50.6035C161.849 50.5966 162.023 50.645 162.172 50.7418C162.321 50.8386 162.439 50.9794 162.51 51.1462C162.58 51.313 162.601 51.4979 162.569 51.6769C162.536 51.856 162.453 52.0211 162.328 52.1503C162.204 52.2795 162.045 52.3673 161.872 52.4019C161.699 52.4364 161.52 52.4165 161.358 52.3445C161.196 52.2725 161.059 52.1516 160.964 51.998C160.87 51.8443 160.822 51.6647 160.827 51.4827C160.83 51.2515 160.92 51.0302 161.078 50.8662C161.235 50.7022 161.449 50.6079 161.672 50.6035ZM63.6246 0.798628C64.1804 0.798628 64.4918 0.878807 64.4918 1.1775C64.4918 1.47621 64.2473 1.52242 63.7527 1.56263C63.4786 1.57508 63.2065 1.61735 62.9411 1.68892C61.8296 1.90151 61.6909 2.62528 61.6131 4.11879C61.5297 5.48022 61.5295 6.67511 61.5295 13.1548V21.0421C61.5295 22.8746 61.6517 24.9197 61.6517 27.0452C61.7405 29.5991 61.4157 32.1505 60.6904 34.5936C59.8233 37.1959 57.639 40.1315 53.6818 42.6361C53.0147 43.0448 52.3261 43.4149 51.6195 43.7448C51.3688 43.8967 51.0868 43.9851 50.7968 44.0032C50.7533 44.0031 50.7103 43.994 50.6702 43.9766C50.63 43.9593 50.5935 43.934 50.5629 43.9019C50.5325 43.8699 50.5086 43.8318 50.4924 43.7901C50.4763 43.7483 50.468 43.7035 50.4687 43.6585C50.4687 43.446 50.6691 43.2794 51.375 42.8945C52.1063 42.4579 52.771 41.9119 53.3479 41.2744C56.4827 37.9943 56.444 33.7319 56.444 25.3793L56.416 13.1548C56.416 6.67515 56.4163 5.48021 56.3329 4.11879C56.2551 2.67121 56.3327 1.98765 54.9489 1.68892C54.5486 1.59071 54.1373 1.5483 53.7262 1.56263C53.2704 1.56263 53.0199 1.47621 53.0199 1.1775C53.0199 0.878827 53.3147 0.798639 53.9315 0.798628C56.1158 0.798628 57.9445 0.924914 59.0116 0.924917C60.0787 0.924917 62.0184 0.79864 63.6246 0.798628ZM4.64603 0.0688477C5.07956 0.0688477 5.4742 0.643758 6.17452 1.39055C6.6694 1.96524 12.9336 8.89267 18.9584 15.0737C21.7374 17.9459 27.3284 24.1099 28.0289 24.7936H28.24L27.7955 5.63571C27.7511 3.03363 27.3842 2.22351 26.3951 1.80412C26.0214 1.60014 25.5989 1.51013 25.1777 1.54528C24.6831 1.54528 24.5164 1.41908 24.5164 1.16063C24.5164 0.902143 24.9664 0.781295 25.5888 0.781275C27.7342 0.781275 28.7403 0.907558 29.6129 0.907565C30.0631 0.907565 30.8581 0.781275 32.8757 0.781275C33.4314 0.781281 33.8259 0.821723 33.8259 1.16063C33.8259 1.49947 33.5645 1.4304 33.081 1.54528C32.7033 1.63713 33.1142 1.54569 32.6197 1.67205C31.4694 2.01104 31.1361 2.90731 31.0916 5.29685L30.6414 32.1927C30.6414 33.129 30.4744 33.5081 30.0854 33.5081C29.6296 33.5081 29.1349 33.0426 28.6791 32.5773C26.0835 30.0152 20.8035 24.4316 16.5184 20.0428C12.0275 15.4472 7.44755 10.1105 6.70833 9.3063H6.5861L7.05856 27.2235C7.14193 30.5437 7.67539 31.6524 8.50348 31.9512C9.20379 32.2097 9.02056 32.25 9.67641 32.25C10.132 32.25 10.3764 32.3363 10.3764 32.5947C10.3764 32.8532 10.004 33.014 9.43149 33.014C6.75294 33.014 6.06921 32.8878 5.28564 32.8877C4.91881 32.8877 3.94597 33.014 1.80065 33.014C1.24484 33.014 0.894377 32.9738 0.894377 32.5947C0.894425 32.3362 1.13916 32.25 1.55041 32.25C2.10621 32.25 1.86173 32.2098 2.43977 32.0375C3.51239 31.6927 3.67911 30.4634 3.71802 26.7526L4.09048 1.52262C4.09048 0.666825 4.21267 0.0690431 4.64603 0.0688477ZM94.8929 0.798628C95.4486 0.798647 95.7596 0.879014 95.7596 1.13749C95.7595 1.3959 95.5094 1.56263 95.0982 1.56263C94.8108 1.56824 94.5253 1.6106 94.248 1.68892C93.1364 1.90147 92.9976 2.62521 92.9142 4.11879C92.8364 5.48022 92.8364 6.67512 92.8364 13.1548V20.6574C92.8364 24.7934 92.8361 28.154 92.9973 29.9922C93.1251 31.1411 93.4088 31.9109 94.6649 32.0775C95.1011 32.1797 95.5462 32.2376 95.9934 32.25C96.4435 32.2501 96.6547 32.3764 96.6547 32.5947C96.6545 32.8129 96.3208 33.014 95.8707 33.014C93.1474 33.014 91.3243 32.8873 90.2128 32.8873C89.2623 32.8873 87.2449 33.014 85.5998 33.014C85.0441 33.014 84.7714 32.8875 84.7713 32.5947C84.7713 32.3017 84.9384 32.25 85.4331 32.25C85.8102 32.256 86.1859 32.1976 86.5447 32.0775C87.3671 31.9108 87.4173 31.1871 87.5452 29.9465C87.7508 28.1542 87.7505 24.7762 87.7505 20.6574L87.734 13.1548C87.734 6.67512 87.7338 5.48022 87.6505 4.11879C87.5671 2.67126 87.3505 1.94727 86.4447 1.72893C86.0863 1.60776 85.7101 1.5517 85.3331 1.56263C84.9219 1.56263 84.6714 1.47629 84.6713 1.13749C84.6713 0.798586 85.0049 0.798628 85.6606 0.798628C87.2279 0.798628 89.2455 0.924905 90.4461 0.924917C91.4743 0.924917 93.3255 0.798628 94.8929 0.798628Z" fill="#CC0000"/>
</svg>
